<?xml version="1.0" standalone="no"?>
<!DOCTYPE svg PUBLIC "-//W3C//DTD SVG 20010904//EN"
 "http://www.w3.org/TR/2001/REC-SVG-20010904/DTD/svg10.dtd">
<svg version="1.0" xmlns="http://www.w3.org/2000/svg"
 width="192.000000pt" height="192.000000pt" viewBox="0 0 192.000000 192.000000"
 preserveAspectRatio="xMidYMid meet">
<metadata>
Created by potrace 1.11, written by Peter Selinger 2001-2013
</metadata>
<g transform="translate(0.000000,192.000000) scale(0.100000,-0.100000)"
fill="#000000" stroke="none">
<path d="M828 1829 c-92 -13 -236 -66 -322 -117 -102 -60 -228 -184 -290 -285
-222 -358 -166 -816 135 -1103 109 -103 235 -175 376 -216 66 -19 102 -23 233
-23 131 0 167 4 233 23 245 71 445 238 561 469 98 196 113 450 40 665 -136
400 -546 649 -966 587z m255 -288 c113 -39 195 -118 239 -229 20 -53 22 -76
25 -327 4 -311 3 -320 -62 -320 l-40 0 -5 295 c-5 280 -6 297 -27 336 -34 64
-66 97 -125 129 -45 25 -64 29 -128 29 -88 0 -156 -29 -208 -88 -67 -77 -67
-72 -72 -401 l-5 -300 -40 0 c-61 0 -65 14 -65 270 0 252 10 335 46 409 84
172 288 258 467 197z m-53 -1013 c0 -150 -7 -168 -68 -168 -65 0 -72 16 -72
167 l0 133 70 0 70 0 0 -132z"/>
</g>
</svg>
